<?xml version="1.0" encoding="utf-8"?>
<!-- Generator: Adobe Illustrator 18.0.0, SVG Export Plug-In . SVG Version: 6.00 Build 0)  -->
<!DOCTYPE svg PUBLIC "-//W3C//DTD SVG 1.1//EN" "http://www.w3.org/Graphics/SVG/1.1/DTD/svg11.dtd">
<svg version="1.1" id="图层_1" xmlns="http://www.w3.org/2000/svg" xmlns:xlink="http://www.w3.org/1999/xlink" x="0px" y="0px"
	 viewBox="0 0 30 30" enable-background="new 0 0 30 30" xml:space="preserve">
<g>
	<path fill-rule="evenodd" clip-rule="evenodd" fill="#65B62F" d="M18.6,10.8c0.3,0,0.5,0,0.8,0c-0.7-3.4-4.4-6-8.6-6
		c-4.7,0-8.5,3.2-8.5,7.2c0,2.3,1.3,4.2,3.4,5.7l-0.8,2.6l3-1.5c1.1,0.2,1.9,0.4,3,0.4c0.3,0,0.5,0,0.8,0c-0.2-0.6-0.3-1.2-0.3-1.8
		C11.4,13.8,14.6,10.8,18.6,10.8z M14,8.5c0.6,0,1.1,0.4,1.1,1.1c0,0.6-0.4,1.1-1.1,1.1c-0.6,0-1.3-0.4-1.3-1.1
		C12.7,8.9,13.4,8.5,14,8.5z M8.1,10.6c-0.6,0-1.3-0.4-1.3-1.1c0-0.6,0.6-1.1,1.3-1.1s1.1,0.4,1.1,1.1C9.1,10.2,8.7,10.6,8.1,10.6z"
		/>
	<path fill-rule="evenodd" clip-rule="evenodd" fill="#65B62F" d="M26.3,17.4c0-3.4-3.4-6.2-7.2-6.2c-4,0-7.2,2.8-7.2,6.2
		c0,3.4,3.2,6.2,7.2,6.2c0.8,0,1.7-0.2,2.5-0.4l2.3,1.3l-0.6-2.1C25.1,21,26.3,19.3,26.3,17.4z M16.8,16.3c-0.4,0-0.8-0.4-0.8-0.9
		c0-0.4,0.4-0.8,0.8-0.8c0.6,0,1.1,0.4,1.1,0.8C17.9,15.9,17.4,16.3,16.8,16.3z M21.5,16.3c-0.4,0-0.8-0.4-0.8-0.9
		c0-0.4,0.4-0.8,0.8-0.8c0.6,0,1.1,0.4,1.1,0.8C22.5,15.9,22.1,16.3,21.5,16.3z"/>
</g>
</svg>
